# xmcd CD database file
#
# Track frame offsets:
#	150
#	15035
#	30425
#	42377
#	58495
#	74827
#	92510
#	112220
#	123132
#	140982
#	155480
#	168607
#	184705
#	203730
#	216882
#	231927
#
# Disc length: 3285 seconds
#
# Revision: 2
# Processed by: cddbd v1.4PL0 Copyright (c) Steve Scherf et al.
# Submitted via: Feurio! 1.65 - http://www.feurio.com
#
DISCID=eb0cd310
DTITLE=Various Artist - No. 1 Country Hit Mix
DYEAR=1900
DGENRE=country
TTITLE0=Alabama - Take a Little Trip
TTITLE1=Billy Ray Cyrus - Achy Breaky Heart
TTITLE2=Tanya Tucker - It's a Little Too Late
TTITLE3=Travis Triti - Can I Trust You With My Heart
TTITLE4=Tracy Lawrence - Sticks And Stones
TTITLE5=Doug Stone - Too Busy Being in Love
TTITLE6=Brooks and Dunn - Neon Moon
TTITLE7=Alan Jackson - She's Got the Rhythm (and I Got the Blues)
TTITLE8=Wynonna Judd - No One Else on Earth
TTITLE9=Collin Raye - In This Life
TTITLE10=Sammy Kershaw - She Don't Know She's Beautiful
TTITLE11=Clint Black - When My Ship Comes In
TTITLE12=Mark Chesnutt - I'll Think of Something
TTITLE13=John Anderson - Straight Tequila Night
TTITLE14=Billy Dean - If There Hadn't Been You
TTITLE15=Sawyer Brown - Some Girls Do
EXTD=
EXTT0=
EXTT1=
EXTT2=
EXTT3=
EXTT4=
EXTT5=
EXTT6=
EXTT7=
EXTT8=
EXTT9=
EXTT10=
EXTT11=
EXTT12=
EXTT13=
EXTT14=
EXTT15=
PLAYORDER=
